<svg xmlns="http://www.w3.org/2000/svg" version="1.1" viewBox="243 257 1567 1258">
<path transform="translate(1488,257)" d="m0 0h273l-2 4-8 7-1 2h-2l-2 4-16 16-7 8-11 12-28 30-6 7-5 5-11 12-11 11-9 11-13 13-7 8-11 11-9 11-7 6-7 8-9 10-9 9-9 11-15 15-7 8-9 9-7 8-5 6h-2l-2 4-9 9-7 8-16 17-7 7-8 10-15 15-9 11-10 9-9 11-5 5h-2l-2 4-14 15-10 10-8 10-15 15-9 11-14 14-7 8-9 9-7 8-13 13-9 11-9 9-7 8-11 11-14 16h-2l-2 4-15 16-7 7-7 8-12 12-9 11-16 16-9 11-7 6-9 11-14 14-7 8-9 10-5 5-14 15-7 7-7 8-9 10-9 9-7 8-8 8-7 8-11 12-7 8-13 13-7 8-10 10-7 8-4 5-5 5-16 17-10 10-9 11-14 14-7 8-4 5-7 6-9 11-15 15-7 8-12 12-9 11-12 12-7 8-29 31-11 12-7 7-7 8-9 9-1 2h-2l-2 4-12 13-8 8-9 11-8 7-1 2h-2l-2 4-9 10-12 12-7 8-5 5-10 11-7 8-12 12-9 11-10 9-9 11-10 10-7 8-1 1h-273l3-5 9-10 11-11 7-8 9-10 8-8 7-8 13-13 9-11 14-14 7-8 14-15 29-31 12-13 8-8 7-8 4-5 5-4 9-11 17-17 8-10 16-16 7-8 10-10 9-11 8-8h2l2-4 9-10 13-13 9-11 10-10 7-8 15-16 16-17 11-12 16-17 8-8 9-11 17-17 8-10 8-7 9-11 17-17 7-8 11-11 7-9 14-14 7-8 9-10h2l2-4 14-15 8-8 7-8 2-3h2l2-4 10-11h2l2-4 11-11 7-8 8-8 7-8 7-7 7-8 12-13 9-9 9-11 8-8h2l2-4 15-16 9-10 7-8 6-5 9-11 18-18 8-10 11-11 7-8 31-33 7-7 7-8 12-13 7-7 7-8 11-12 9-9 7-8 8-8 9-11 17-17 7-8 10-10 9-11 15-15 7-8 6-7 6-5 8-10 15-15 7-8 4-5 7-6 9-11 13-13 7-8 14-15 7-8 8-8 7-8 9-9 7-8 9-10 9-9 7-8 11-11 9-11 7-6 1-2h2l2-4 10-11 3-4z" fill="#D7B9BD"/>
<path transform="translate(243,281)" d="m0 0h950l-2 4-9 10-5 5-12 13-7 8-10 10-9 11-14 14-7 8-13 13-9 11-11 11-1 2h-2l-2 4-13 13-7 8-11 12-8 8-14 16h-2v2h-2l-2 4-3 3-7 1-436 1 14 26 20 38 7 12 8 16 13 24 12 23 10 18 8 16 13 24 14 27 10 18 10 20 12 21 8 17-1 4-7 7-7 9h-2v2l-7 6-9 11-14 14-9 11-5 5h-2v2l-5 5-11 12-5 5-12 13-7 8-8 8-7 8-13 13-7 8-6 7-3-1-9-16-11-21-6-12-12-22-11-21-9-16-9-19-11-19-13-25-12-22-13-25-20-38-9-16-11-22-9-16-11-21-12-22-13-25-9-16-8-16-14-26-10-20-10-18-12-23-14-26-11-21-9-16-12-24-7-11-11-23-13-23-3-6z" fill="#F7F3EB"/>
<path transform="translate(1464,865)" d="m0 0 4 4 15 30 9 16 15 29 10 18 9 17 6 12 8 14 10 20 8 14 12 23 13 24 10 20 9 15 9 19 12 22 10 19 11 19 8 16 11 21 11 20 8 16 13 24 13 25 10 18 12 23 12 22 30 57 9 16 11 22 8 14 10 19-1 2h-937l-12-1 1-3 11-9 11-13 13-13 9-11 16-16 7-8 8-8 7-8 16-17 9-10 16-17 12-13 7-8 11-11 8-10 8-7 7-7h439l-10-21-13-23-8-17-12-21-12-23-9-16-8-16-13-24-11-22-11-19-8-16-9-17-10-19-11-21-12-22-1-5 6-8 4-4h2v-2l5-4 9-11 14-14 7-8 9-10 7-7 7-8 15-16 7-7 9-11 17-17 7-8 10-10 8-10z" fill="#F7F3EB"/>
</svg>
